# xmcd
#
# Track frame offsets:
#	150
#	20477
#	41260
#	58582
#	77267
#	95272
#	115747
#	139035
#	159992
#	179257
#	199282
#	218447
#	232890
#	250700
#
# Disc length: 3643 seconds
#
# Revision: 6
# Processed by: cddbd v1.5.2PL0 Copyright (c) Steve Scherf et al.
# Submitted via: EasyCDDAExtractor 12.0.1.1
#
DISCID=a20e390e
DTITLE=Korn - Untouchables 
DYEAR=2002
DGENRE=Metal
TTITLE0=Here to Stay
TTITLE1=Make Believe
TTITLE2=Blame
TTITLE3=Hollow Life
TTITLE4=Bottled Up Inside
TTITLE5=Thoughtless
TTITLE6=Hating
TTITLE7=One More Time
TTITLE8=Alone I Break
TTITLE9=Embrace
TTITLE10=Beat It Upright
TTITLE11=Wake Up Hate
TTITLE12=I'm Hiding
TTITLE13=No One's There
EXTD=
EXTT0=
EXTT1=
EXTT2=
EXTT3=
EXTT4=
EXTT5=
EXTT6=
EXTT7=
EXTT8=
EXTT9=
EXTT10=
EXTT11=
EXTT12=
EXTT13=
PLAYORDER=
